<svg width="30" height="32" viewBox="0 0 30 32" fill="none" xmlns="http://www.w3.org/2000/svg">
<g clip-path="url(#clip0_1025_322)">
<path d="M22 0H4C1.79063 0 0 1.79063 0 4V28C0 30.2094 1.79063 32 4 32H22C24.2094 32 26 30.2094 26 28V4C26 1.79063 24.2062 0 22 0ZM13 8C15.2094 8 17 9.79062 17 12C17 14.2094 15.2094 16 13 16C10.7913 16 9 14.2094 9 12C9 9.79062 10.7937 8 13 8ZM19 24H7C6.45 24 6 23.55 6 23C6 20.2375 8.2375 18 11 18H15C17.7612 18 20 20.2388 20 23C20 23.55 19.55 24 19 24ZM29 4H28V10H29C29.55 10 30 9.55 30 9V5C30 4.4475 29.55 4 29 4ZM29 12H28V18H29C29.55 18 30 17.55 30 17V13C30 12.45 29.55 12 29 12ZM29 20H28V26H29C29.5522 26 30 25.5522 30 25V21C30 20.45 29.55 20 29 20Z" fill="white"/>
</g>
<defs>
<clipPath id="clip0_1025_322">
<rect width="30" height="32" fill="white"/>
</clipPath>
</defs>
</svg>
