<svg width="24" height="23" viewBox="0 0 24 23" fill="none" xmlns="http://www.w3.org/2000/svg">
<path d="M8.4375 3.68021H8.25C8.35313 3.68021 8.4375 3.59607 8.4375 3.49323V3.68021H15.5625V3.49323C15.5625 3.59607 15.6469 3.68021 15.75 3.68021H15.5625V5.36302H17.25V3.49323C17.25 2.66819 16.5773 1.99741 15.75 1.99741H8.25C7.42266 1.99741 6.75 2.66819 6.75 3.49323V5.36302H8.4375V3.68021ZM20.25 5.36302H3.75C3.33516 5.36302 3 5.69724 3 6.11093V6.85885C3 6.96168 3.08437 7.04582 3.1875 7.04582H4.60312L5.18203 19.2695C5.21953 20.0665 5.88047 20.6953 6.67969 20.6953H17.3203C18.1219 20.6953 18.7805 20.0689 18.818 19.2695L19.3969 7.04582H20.8125C20.9156 7.04582 21 6.96168 21 6.85885V6.11093C21 5.69724 20.6648 5.36302 20.25 5.36302ZM17.1398 19.0124H6.86016L6.29297 7.04582H17.707L17.1398 19.0124Z" fill="#B30000"/>
</svg>
