<svg width="24" height="25" viewBox="0 0 24 25" fill="none" xmlns="http://www.w3.org/2000/svg">
<path d="M21.3187 20.9828L15.232 14.9045C16.1766 13.6852 16.6875 12.1943 16.6875 10.6261C16.6875 8.74906 15.9539 6.98901 14.6273 5.66195C13.3008 4.33489 11.5336 3.60466 9.65625 3.60466C7.77891 3.60466 6.01172 4.33723 4.68516 5.66195C3.35625 6.98667 2.625 8.74906 2.625 10.6261C2.625 12.5009 3.35859 14.2656 4.68516 15.5903C6.01172 16.9174 7.77656 17.6476 9.65625 17.6476C11.2266 17.6476 12.7172 17.1374 13.9383 16.1965L20.025 22.2724C20.0428 22.2902 20.064 22.3044 20.0874 22.314C20.1107 22.3237 20.1357 22.3287 20.1609 22.3287C20.1862 22.3287 20.2112 22.3237 20.2345 22.314C20.2578 22.3044 20.279 22.2902 20.2969 22.2724L21.3187 21.2543C21.3366 21.2365 21.3508 21.2153 21.3604 21.192C21.3701 21.1687 21.3751 21.1438 21.3751 21.1185C21.3751 21.0933 21.3701 21.0684 21.3604 21.0451C21.3508 21.0218 21.3366 21.0006 21.3187 20.9828ZM13.3688 14.3335C12.375 15.3235 11.0578 15.8688 9.65625 15.8688C8.25469 15.8688 6.9375 15.3235 5.94375 14.3335C4.95234 13.3411 4.40625 12.0257 4.40625 10.6261C4.40625 9.22652 4.95234 7.90882 5.94375 6.91879C6.9375 5.92877 8.25469 5.38343 9.65625 5.38343C11.0578 5.38343 12.3773 5.92643 13.3688 6.91879C14.3602 7.91116 14.9062 9.22652 14.9062 10.6261C14.9062 12.0257 14.3602 13.3434 13.3688 14.3335Z" fill="black"/>
</svg>
